<svg xmlns="http://www.w3.org/2000/svg" xmlns:xlink="http://www.w3.org/1999/xlink" width="1080" zoomAndPan="magnify" viewBox="0 0 810 809.999993" height="1080" preserveAspectRatio="xMidYMid meet" version="1.0"><defs><clipPath id="47260370af"><path d="M 7.363281 405 L 802.363281 405 L 802.363281 810 L 7.363281 810 Z M 7.363281 405 " clip-rule="nonzero"/></clipPath><clipPath id="6b34dfc49a"><path d="M 7.363281 0 L 802.363281 0 L 802.363281 796 L 7.363281 796 Z M 7.363281 0 " clip-rule="nonzero"/></clipPath></defs><g clip-path="url(#47260370af)"><path fill="#ffc0cb" d="M 802.632812 405 C 802.632812 407.492188 802.632812 409.734375 802.632812 412.226562 C 802.632812 631.96875 624.496094 809.859375 405 809.859375 C 185.503906 809.859375 7.363281 631.722656 7.363281 412.226562 C 7.363281 409.734375 7.363281 407.492188 7.363281 405 C 11.101562 621.257812 187.746094 795.410156 405 795.410156 C 622.253906 795.410156 798.894531 621.257812 802.632812 405 Z M 802.632812 405 " fill-opacity="1" fill-rule="nonzero"/></g><g clip-path="url(#6b34dfc49a)"><path fill="#ffc0cb" d="M 802.632812 397.773438 C 802.632812 400.265625 802.632812 402.507812 802.632812 405 C 798.894531 621.257812 622.253906 795.410156 405 795.410156 C 187.746094 795.410156 11.351562 621.257812 7.363281 405 C 7.363281 402.507812 7.363281 400.265625 7.363281 397.773438 C 7.363281 178.277344 185.503906 0.140625 405 0.140625 C 624.742188 0.140625 802.632812 178.277344 802.632812 397.773438 Z M 802.632812 397.773438 " fill-opacity="1" fill-rule="nonzero"/></g><path fill="#fefefe" d="M 470.023438 408.738281 L 637.449219 565.199219 L 637.449219 576.164062 L 572.921875 640.691406 L 405.246094 473.515625 L 237.824219 640.941406 L 173.292969 576.410156 L 173.292969 565.449219 L 340.71875 408.988281 L 173.292969 241.3125 L 173.292969 230.351562 L 237.824219 176.535156 L 405.246094 343.960938 L 572.671875 176.535156 L 637.199219 230.351562 L 637.199219 241.3125 Z M 470.023438 408.738281 " fill-opacity="1" fill-rule="nonzero"/><path fill="#fefefe" d="M 470.023438 398.023438 L 637.449219 565.449219 L 572.921875 629.976562 L 405.496094 462.550781 L 238.070312 629.976562 L 173.542969 565.449219 L 340.96875 398.023438 L 173.292969 230.597656 L 237.824219 166.070312 L 405.246094 333.496094 L 572.671875 166.070312 L 637.199219 230.597656 Z M 470.023438 398.023438 " fill-opacity="1" fill-rule="nonzero"/></svg>