<svg xmlns="http://www.w3.org/2000/svg" xmlns:xlink="http://www.w3.org/1999/xlink" width="1080" zoomAndPan="magnify" viewBox="0 0 810 809.999993" height="1080" preserveAspectRatio="xMidYMid meet" version="1.0"><path fill="#ffc0cb" d="M 805.792969 397.625 L 802.136719 452.003906 C 784.796875 561.5625 734.0625 649.1875 649.929688 714.875 C 565.214844 780.511719 465.457031 807.125 350.660156 794.71875 C 241.097656 777.378906 153.476562 726.644531 87.789062 642.511719 C 66.742188 615.316406 49.402344 585.683594 35.777344 553.617188 L 18.601562 504.160156 C 9.164062 470.128906 4.390625 434.617188 4.285156 397.625 C 7.148438 284.09375 46.277344 189.636719 121.664062 114.246094 C 197.050781 38.859375 291.507812 -0.265625 405.039062 -3.128906 C 518.570312 -0.265625 613.027344 38.859375 688.417969 114.246094 C 763.804688 189.636719 802.929688 284.09375 805.792969 397.625 " fill-opacity="0.996" fill-rule="nonzero"/><path fill="#fefefe" d="M 315.082031 576.75 L 315.050781 576.785156 C 314.972656 576.878906 314.90625 576.949219 314.859375 576.992188 C 314.835938 577.011719 314.8125 577.027344 314.789062 577.039062 C 314.78125 577.039062 314.773438 577.039062 314.769531 577.039062 C 314.769531 577.03125 314.777344 577.015625 314.796875 576.992188 C 314.835938 576.949219 314.917969 576.867188 315.046875 576.75 L 315.082031 576.75 M 679.078125 152.957031 L 678.386719 152.988281 C 602.09375 208.246094 535.496094 267.902344 478.589844 331.957031 C 426.949219 390.253906 380.886719 456.890625 340.402344 531.871094 C 316.332031 481.882812 290.613281 438.484375 263.25 401.675781 C 257.945312 399.542969 250.277344 401.585938 240.246094 407.796875 C 236.582031 409.457031 220.1875 421.082031 191.058594 442.675781 C 188.058594 444.964844 185.023438 445.960938 181.953125 445.660156 C 200.699219 467.710938 218.230469 491.929688 234.554688 518.316406 C 239.273438 524.53125 260.820312 562.472656 299.203125 632.140625 C 308.855469 644.140625 322.101562 650.027344 338.941406 649.800781 C 355.578125 649.015625 369.929688 639.863281 381.984375 622.347656 L 445.019531 497.9375 C 451.753906 485.222656 467.027344 459.695312 490.839844 421.351562 C 537.386719 349.28125 600.597656 265.511719 680.476562 170.042969 C 686.199219 159.21875 685.734375 153.523438 679.078125 152.957031 " fill-opacity="1" fill-rule="nonzero"/></svg>